<?xml version="1.0" encoding="UTF-8"?>
<svg id="Layer_2" data-name="Layer 2" xmlns="http://www.w3.org/2000/svg" viewBox="0 0 1379.01 995.05">
  <defs>
    <style>
      .cls-1 {
        fill: #fff;
      }
    </style>
  </defs>
  <g id="Layer_1-2" data-name="Layer 1">
    <g>
      <polygon class="cls-1" points="632.07 99.72 631.93 99.94 574.35 .22 574.49 0 632.07 99.72"/>
      <polygon class="cls-1" points="636.86 895.33 579.28 995.05 579.12 995.05 636.7 895.33 636.86 895.33"/>
      <polygon class="cls-1" points="864.05 501.53 863.91 501.75 860.84 496.43 861.1 496.43 864.05 501.53"/>
      <polygon class="cls-1" points="864.13 501.67 864.01 501.89 863.91 501.75 864.05 501.53 864.13 501.67"/>
      <polygon class="cls-1" points="806.55 601.4 636.86 895.33 636.7 895.33 806.47 601.26 806.55 601.4"/>
      <polygon class="cls-1" points="867.16 496.43 864.13 501.67 864.05 501.53 867.01 496.43 867.16 496.43"/>
      <polygon class="cls-1" points="921.57 402.17 921.57 402.19 867.16 496.43 867.01 496.43 921.49 402.05 921.57 402.17"/>
      <polygon class="cls-1" points="861.1 496.43 860.84 496.43 806.43 402.17 806.55 401.95 861.1 496.43"/>
      <polygon class="cls-1" points="806.55 401.95 806.43 402.17 631.93 99.94 632.07 99.72 806.55 401.95"/>
      <path class="cls-1" d="M1321.43,895.33l-230.3-398.9-54.49-94.38-57.48-99.58-57.58,99.7v.02l-54.41,94.24-3.03,5.25-.12.22-.1-.14-3.07-5.33-54.41-94.26-174.5-302.23L574.35.22l-57.44,99.51-55.51,96.13-173.52,300.57L57.58,895.33,0,995.05h464.14l57.58-99.72H172.72l230.3-398.9,58.38-101.12,113.09-195.86,171.47,296.98,3.03,5.25,57.48,99.59.08.14-169.69,293.93-57.58,99.72h569.45l-57.58-99.72-169.65-293.85.14-.22,57.42-99.49.02-.02,227.23,393.57,57.58,99.72h115.12l-57.58-99.72ZM976.26,895.33h-224.42l112.21-194.34,112.21,194.34Z"/>
      <polygon class="cls-1" points="1263.89 995.05 1263.85 995.05 1206.29 895.33 1206.31 895.33 1263.89 995.05"/>
      <polygon class="cls-1" points="1148.99 995.05 1148.73 995.05 1091.15 895.33 1091.41 895.33 1148.99 995.05"/>
      <polygon class="cls-1" points="1206.31 895.33 1206.29 895.33 979.06 501.77 979.08 501.75 1206.31 895.33"/>
      <polygon class="cls-1" points="1091.41 895.33 1091.15 895.33 921.49 601.48 921.63 601.26 1091.41 895.33"/>
      <polygon class="cls-1" points="979.16 302.46 921.57 402.17 921.49 402.05 921.49 402.03 979.06 302.32 979.16 302.46"/>
    </g>
  </g>
</svg>