<?xml version="1.0" encoding="UTF-8"?>
<svg id="Layer_2" data-name="Layer 2" xmlns="http://www.w3.org/2000/svg" viewBox="0 0 1200 1199.88">
  <defs>
    <style>
      .cls-1 {
        fill: #e67e26;
      }
    </style>
  </defs>
  <g id="Layer_1-2" data-name="Layer 1">
    <path class="cls-1" d="M1152.83,366.32c-30.22-71.45-73.48-135.62-128.56-190.7-55.08-55.08-119.24-98.34-190.7-128.56C763.04,17.23,688.37,1.42,611.43,0v114.95c262.21,6.09,473.64,221.28,473.64,484.93,0,174.34-92.46,327.49-230.91,413.01l-197.15-319.3,238.07-248.2h-193.75l-243.14,262.13V16.72c-31.23,7.58-61.86,17.7-91.75,30.34-71.45,30.22-135.62,73.48-190.7,128.56-55.08,55.08-98.34,119.24-128.56,190.7C15.87,440.33,0,518.91,0,599.88s15.87,159.56,47.17,233.56c30.22,71.45,73.48,135.62,128.56,190.7,55.08,55.08,119.24,98.34,190.7,128.56,74.01,31.3,152.59,47.17,233.56,47.17s159.56-15.87,233.56-47.17c71.45-30.22,135.62-73.48,190.7-128.56s98.34-119.24,128.56-190.7c31.3-74.01,47.17-152.59,47.17-233.56s-15.87-159.56-47.17-233.56ZM114.93,599.88c0-156.56,74.56-296.02,190.02-384.77v769.54c-115.47-88.75-190.02-228.22-190.02-384.78ZM458.18,1063.8v-161.27l91.18-94.98,163.77,264.07c-36.31,8.71-74.19,13.33-113.13,13.33-49.32,0-96.94-7.41-141.82-21.15Z"/>
  </g>
</svg>