<?xml version="1.0" encoding="UTF-8"?>
<svg id="Layer_2" data-name="Layer 2" xmlns="http://www.w3.org/2000/svg" viewBox="0 0 2164.01 970.02">
  <defs>
    <style>
      .cls-1 {
        fill: #e67e26;
      }
    </style>
  </defs>
  <g id="Layer_1-2" data-name="Layer 1">
    <g>
      <g>
        <polygon class="cls-1" points="533.13 8.34 393.12 8.34 118.68 364.45 118.68 8.34 0 8.34 0 686.11 118.68 686.11 118.68 541.83 230.88 397.41 398.69 686.11 535.91 686.11 308.3 297.74 533.13 8.34"/>
        <path class="cls-1" d="M898.43,235.97c-29.67-14.52-65.22-21.79-106.63-21.79s-76.81,6.81-108.02,20.4c-31.22,13.6-55.33,32.61-72.32,57.02-17.01,24.43-25.5,53.31-25.5,86.69h96.43c0-24.11,8.95-42.8,26.89-56.09,17.92-13.29,43.58-19.93,76.96-19.93,19.15,0,35.84,2.94,50.07,8.81,14.21,5.88,25.18,15.15,32.92,27.82,7.72,12.68,11.59,29.52,11.59,50.53v10.2l-137.22,11.13c-54.4,4.33-96.28,19.01-125.63,44.04-29.37,25.03-44.04,58.57-44.04,100.6s14.05,77.11,42.19,103.38c28.12,26.28,66.29,39.4,114.51,39.4,35.84,0,67.83-7.42,95.96-22.25,28.12-14.84,47.13-33.99,57.02-57.48l8.34,67.68h99.21v-278.15c0-42.65-8.04-78.35-24.11-107.09-16.08-28.74-38.94-50.37-68.61-64.9ZM881.74,500.68c0,35.23-10.36,62.74-31.06,82.52-20.72,19.79-48.68,29.67-83.91,29.67-24.73,0-43.9-5.24-57.49-15.76-13.6-10.5-20.4-25.96-20.4-46.36,0-18.54,7.42-33.52,22.25-44.97,14.83-11.43,39.87-18.69,75.1-21.79l95.5-7.42v24.11Z"/>
        <path class="cls-1" d="M1406.51,235.97c-29.67-14.52-65.22-21.79-106.63-21.79s-76.81,6.81-108.02,20.4c-31.22,13.6-55.33,32.61-72.32,57.02-17.01,24.43-25.5,53.31-25.5,86.69h96.43c0-24.11,8.95-42.8,26.89-56.09,17.92-13.29,43.58-19.93,76.96-19.93,19.15,0,35.84,2.94,50.07,8.81,14.21,5.88,25.18,15.15,32.92,27.82,7.72,12.68,11.59,29.52,11.59,50.53v10.2l-137.22,11.13c-54.4,4.33-96.28,19.01-125.63,44.04-29.37,25.03-44.04,58.57-44.04,100.6s14.05,77.11,42.19,103.38c28.12,26.28,66.29,39.4,114.51,39.4,35.84,0,67.83-7.42,95.96-22.25,28.12-14.84,47.13-33.99,57.02-57.48l8.34,67.68h99.21v-278.15c0-42.65-8.04-78.35-24.11-107.09-16.08-28.74-38.94-50.37-68.61-64.9ZM1389.83,500.68c0,35.23-10.36,62.74-31.06,82.52-20.72,19.79-48.68,29.67-83.91,29.67-24.73,0-43.9-5.24-57.49-15.76-13.6-10.5-20.4-25.96-20.4-46.36,0-18.54,7.42-33.52,22.25-44.97,14.83-11.43,39.87-18.69,75.1-21.79l95.5-7.42v24.11Z"/>
        <path class="cls-1" d="M1837.64,424.65l-82.52-19.47c-39.56-9.27-59.34-26.57-59.34-51.92,0-16.69,6.17-29.97,18.54-39.87,12.36-9.88,29.67-14.84,51.92-14.84s39.55,5.72,51.92,17.15c12.36,11.44,18.54,27.05,18.54,46.82h107.55c-.62-29.67-8.2-55.63-22.72-77.88-14.53-22.25-34.77-39.55-60.73-51.92-25.96-12.36-55.95-18.54-89.94-18.54s-66.45,5.72-93.65,17.15c-27.21,11.45-48.68,27.98-64.44,49.6-15.76,21.64-23.64,47.29-23.64,76.96,0,36.48,10.04,65.06,30.13,85.76,20.08,20.72,50.84,35.7,92.25,44.97l82.52,19.47c20.4,4.33,34.31,10.82,41.72,19.47,7.42,8.66,11.13,18.54,11.13,29.67,0,16.69-6.95,29.99-20.86,39.87-13.91,9.9-34.46,14.84-61.66,14.84-25.35,0-45.13-5.87-59.34-17.62-14.23-11.74-21.64-27.5-22.25-47.29h-107.55c0,45.13,16.83,81.59,50.53,109.41,33.68,27.82,78.95,41.72,135.83,41.72,37.7,0,71.07-6.03,100.13-18.08,29.05-12.05,51.6-29.35,67.68-51.92,16.07-22.56,24.11-49.28,24.11-80.2,0-35.23-9.74-62.42-29.21-81.59-19.47-19.15-48.37-33.06-86.69-41.72Z"/>
        <path class="cls-1" d="M2095.39,136.3c19.15,0,35.38-6.63,48.68-19.93,13.28-13.28,19.93-29.51,19.93-48.68s-6.65-35.23-19.93-48.21c-13.3-12.98-29.53-19.47-48.68-19.47s-35.39,6.49-48.68,19.47c-13.3,12.98-19.93,29.06-19.93,48.21s6.63,35.39,19.93,48.68c13.28,13.3,29.51,19.93,48.68,19.93Z"/>
        <rect class="cls-1" x="2039.76" y="228.09" width="113.12" height="458.03"/>
      </g>
      <g>
        <path class="cls-1" d="M93.78,924.48H0v-159.29h93.56v9.87H.67l10.1-8.53v73.14h75.38v9.87H10.77v73.81l-10.1-8.75h93.11v9.87Z"/>
        <path class="cls-1" d="M166.92,924.48h-12.56l39.04-54.29-38.81-53.4h12.56l33.43,46.22,33.43-46.22h12.34l-39.04,53.84,39.04,53.85h-12.56l-33.65-46.44-33.2,46.44Z"/>
        <path class="cls-1" d="M310.5,970.02v-153.23h8.3l1.57,24.23c4.04-9.27,9.76-16.08,17.16-20.42,7.4-4.34,15.74-6.51,25.02-6.51,10.62,0,19.59,2.51,26.92,7.52,7.33,5.01,12.93,11.78,16.83,20.3,3.89,8.53,5.83,18.1,5.83,28.72s-1.95,20.19-5.83,28.72c-3.89,8.53-9.5,15.29-16.83,20.3-7.33,5.01-16.3,7.52-26.92,7.52-9.57,0-17.95-2.17-25.13-6.51-7.18-4.34-12.71-10.84-16.6-19.52v68.88h-10.32ZM321.05,870.63c0,8.98,1.57,17.02,4.71,24.12,3.14,7.11,7.74,12.71,13.8,16.83,6.06,4.12,13.35,6.17,21.87,6.17s15.78-2.06,21.76-6.17c5.98-4.11,10.54-9.72,13.68-16.83,3.14-7.1,4.71-15.14,4.71-24.12s-1.57-17.24-4.71-24.34c-3.14-7.1-7.71-12.68-13.68-16.71-5.98-4.04-13.24-6.06-21.76-6.06s-15.82,2.02-21.87,6.06c-6.06,4.04-10.66,9.61-13.8,16.71-3.14,7.11-4.71,15.22-4.71,24.34Z"/>
        <path class="cls-1" d="M526.78,927.17c-10.32,0-19.37-2.35-27.15-7.07-7.78-4.71-13.84-11.29-18.17-19.74-4.34-8.45-6.51-18.28-6.51-29.5s2.13-21.09,6.39-29.61,10.17-15.18,17.72-19.97c7.55-4.78,16.34-7.18,26.36-7.18,9.42,0,17.69,2.1,24.79,6.28,7.1,4.19,12.64,9.98,16.6,17.39,3.96,7.4,5.94,16.04,5.94,25.91v7.18h-91.98l.45-8.53h80.99c0-11.67-3.37-21.05-10.1-28.16-6.73-7.1-15.63-10.66-26.7-10.66-7.93,0-14.92,1.87-20.98,5.61-6.06,3.74-10.77,9.01-14.13,15.82-3.37,6.81-5.05,14.7-5.05,23.67,0,15.41,3.66,27.45,10.99,36.12,7.33,8.68,17.5,13.01,30.51,13.01,9.57,0,17.35-2.06,23.33-6.17,5.98-4.11,10.02-10.13,12.11-18.06h10.54c-3.14,11.07-8.56,19.44-16.26,25.13-7.71,5.69-17.61,8.53-29.73,8.53Z"/>
        <path class="cls-1" d="M653.98,924.48h-10.32v-107.69h8.3l2.24,20.86c3.59-7.48,8.82-13.27,15.71-17.39,6.88-4.11,14.36-6.17,22.44-6.17,15.26,0,26.06,4.12,32.42,12.34,6.36,8.23,9.53,19.07,9.53,32.53v65.51h-10.32v-63.49c0-14.21-2.88-24.01-8.64-29.39-5.76-5.39-13.5-8.08-23.22-8.08-12.27,0-21.69,4.15-28.27,12.45-6.58,8.3-9.87,19.26-9.87,32.87v55.64Z"/>
        <path class="cls-1" d="M800.93,895.31h10.1c0,6.88,2.43,12.34,7.29,16.38,4.86,4.04,11.4,6.06,19.63,6.06,9.12,0,16.3-1.91,21.54-5.72,5.23-3.81,7.85-9.01,7.85-15.59,0-5.23-1.42-9.35-4.26-12.34-2.84-2.99-7.78-5.38-14.81-7.18l-18.17-4.71c-9.12-2.39-15.93-6.06-20.42-10.99s-6.73-10.69-6.73-17.28c0-5.98,1.53-11.22,4.6-15.7,3.06-4.49,7.4-7.96,13.01-10.43,5.61-2.47,12.08-3.7,19.41-3.7s13.91,1.27,19.29,3.81c5.38,2.55,9.61,6.14,12.68,10.77,3.06,4.64,4.67,10.25,4.82,16.83h-10.1c-.3-7.03-2.8-12.45-7.52-16.27-4.71-3.81-11.11-5.72-19.18-5.72-8.68,0-15.29,1.76-19.86,5.27-4.56,3.52-6.84,8.56-6.84,15.14,0,9.42,6.43,15.78,19.29,19.07l17.95,4.71c9.42,2.39,16.3,5.91,20.64,10.54,4.34,4.64,6.51,10.69,6.51,18.17,0,6.13-1.65,11.52-4.94,16.15-3.29,4.64-7.85,8.23-13.69,10.77-5.83,2.54-12.71,3.81-20.64,3.81-11.37,0-20.45-2.88-27.26-8.64-6.81-5.76-10.21-13.5-10.21-23.22Z"/>
        <path class="cls-1" d="M993.88,927.17c-10.32,0-19.37-2.35-27.15-7.07-7.78-4.71-13.84-11.29-18.17-19.74-4.34-8.45-6.51-18.28-6.51-29.5s2.13-21.09,6.39-29.61c4.26-8.53,10.17-15.18,17.72-19.97,7.55-4.78,16.34-7.18,26.36-7.18,9.42,0,17.69,2.1,24.79,6.28,7.1,4.19,12.64,9.98,16.6,17.39,3.96,7.4,5.94,16.04,5.94,25.91v7.18h-91.98l.45-8.53h80.99c0-11.67-3.37-21.05-10.1-28.16-6.73-7.1-15.63-10.66-26.7-10.66-7.93,0-14.92,1.87-20.98,5.61-6.06,3.74-10.77,9.01-14.13,15.82-3.37,6.81-5.05,14.7-5.05,23.67,0,15.41,3.66,27.45,10.99,36.12,7.33,8.68,17.5,13.01,30.51,13.01,9.57,0,17.35-2.06,23.33-6.17,5.98-4.11,10.02-10.13,12.11-18.06h10.54c-3.14,11.07-8.56,19.44-16.26,25.13-7.71,5.69-17.61,8.53-29.73,8.53Z"/>
        <path class="cls-1" d="M1203.65,775.06v-9.87h110.83v9.87h-110.83ZM1264.45,769.67v154.8h-10.77v-154.8h10.77Z"/>
        <path class="cls-1" d="M1416.56,815.22v8.97h-8.08c-10.02,0-18.02,3.25-24.01,9.76-5.98,6.51-8.97,14.85-8.97,25.02v65.51h-10.32v-107.69h9.65l1.12,20.64h-1.12c1.49-7.03,5.2-12.68,11.11-16.94,5.91-4.26,12.97-6.39,21.2-6.39,1.64,0,3.18.08,4.6.22,1.42.15,3.03.45,4.82.9Z"/>
        <path class="cls-1" d="M1508.99,927.17c-11.52,0-20.45-2.92-26.81-8.75-6.36-5.83-9.54-13.31-9.54-22.44,0-9.87,3.59-17.8,10.77-23.78,7.18-5.98,17.05-9.5,29.61-10.54l37.02-2.92v-4.04c0-8.08-1.42-14.39-4.26-18.96-2.84-4.56-6.66-7.74-11.44-9.54-4.79-1.79-10.02-2.69-15.71-2.69-10.02,0-17.84,2.21-23.45,6.62-5.61,4.41-8.41,10.58-8.41,18.51h-10.32c0-7.03,1.76-13.13,5.27-18.28,3.51-5.16,8.49-9.16,14.92-12,6.43-2.84,13.83-4.26,22.21-4.26,7.78,0,14.77,1.31,20.98,3.93,6.2,2.62,11.18,6.81,14.92,12.56,3.74,5.76,5.61,13.28,5.61,22.55v71.34h-8.3l-2.02-20.19c-3.74,7.33-9.2,12.98-16.38,16.94-7.18,3.96-15.41,5.94-24.68,5.94ZM1510.34,917.97c12.71,0,22.51-4.19,29.39-12.56,6.88-8.37,10.32-19.14,10.32-32.31v-5.83l-36.12,2.92c-10.92.9-18.81,3.74-23.67,8.53-4.86,4.79-7.29,10.47-7.29,17.05,0,7.33,2.54,12.87,7.63,16.6,5.08,3.74,11.67,5.61,19.74,5.61Z"/>
        <path class="cls-1" d="M1629.92,871.08c0-11.37,2.13-21.31,6.39-29.84s10.21-15.18,17.84-19.97c7.63-4.78,16.6-7.18,26.92-7.18,11.51,0,21.35,3.14,29.5,9.42,8.15,6.28,13.42,14.51,15.82,24.68h-10.54c-2.24-7.93-6.62-14.06-13.12-18.4-6.51-4.34-13.72-6.51-21.65-6.51s-15,1.95-21.2,5.83c-6.21,3.89-11.07,9.39-14.58,16.49-3.52,7.11-5.27,15.52-5.27,25.24s1.64,17.43,4.94,24.45c3.29,7.03,7.93,12.53,13.91,16.49,5.98,3.96,12.94,5.95,20.87,5.95,8.67,0,16.34-2.24,23-6.73,6.65-4.49,11.18-10.39,13.57-17.72h10.54c-1.95,6.73-5.16,12.64-9.65,17.72-4.49,5.09-9.95,9.05-16.38,11.89-6.43,2.84-13.46,4.26-21.09,4.26-9.87,0-18.55-2.35-26.02-7.07-7.48-4.71-13.32-11.25-17.5-19.63-4.19-8.37-6.28-18.17-6.28-29.39Z"/>
        <path class="cls-1" d="M1807.83,924.48h-10.32v-161.98h10.32v114.64l58.56-60.35h13.24l-41.73,43.08,42.18,64.61h-11.89l-37.24-57.66-23.11,24.01v33.65Z"/>
        <path class="cls-1" d="M1984.61,927.17c-10.32,0-19.37-2.35-27.15-7.07-7.78-4.71-13.84-11.29-18.17-19.74-4.34-8.45-6.51-18.28-6.51-29.5s2.13-21.09,6.39-29.61c4.26-8.53,10.17-15.18,17.72-19.97,7.55-4.78,16.34-7.18,26.36-7.18,9.42,0,17.69,2.1,24.79,6.28,7.1,4.19,12.64,9.98,16.6,17.39,3.96,7.4,5.94,16.04,5.94,25.91v7.18h-91.98l.45-8.53h80.99c0-11.67-3.37-21.05-10.1-28.16-6.73-7.1-15.63-10.66-26.7-10.66-7.93,0-14.92,1.87-20.98,5.61-6.06,3.74-10.77,9.01-14.13,15.82-3.37,6.81-5.05,14.7-5.05,23.67,0,15.41,3.66,27.45,10.99,36.12,7.33,8.68,17.5,13.01,30.51,13.01,9.57,0,17.35-2.06,23.33-6.17,5.98-4.11,10.02-10.13,12.11-18.06h10.54c-3.14,11.07-8.56,19.44-16.26,25.13-7.71,5.69-17.61,8.53-29.73,8.53Z"/>
        <path class="cls-1" d="M2152.88,815.22v8.97h-8.08c-10.02,0-18.02,3.25-24.01,9.76-5.98,6.51-8.97,14.85-8.97,25.02v65.51h-10.32v-107.69h9.65l1.12,20.64h-1.12c1.49-7.03,5.2-12.68,11.11-16.94,5.91-4.26,12.97-6.39,21.2-6.39,1.64,0,3.18.08,4.6.22,1.42.15,3.03.45,4.82.9Z"/>
      </g>
    </g>
  </g>
</svg>